<svg height="512" viewBox="0 0 24 24" width="512" xmlns="http://www.w3.org/2000/svg"><g fill="#5c6bc0"><path d="M3.58 21.2h14.26l-.68-2.2L23 24V2.48A2.65 2.65 0 0020.35 0H3.58A2.55 2.55 0 001 2.48v16.24a2.5 2.5 0 002.58 2.48zM14.13 5.68l-.04.02.02-.02zM6.5 6.95c1.83-1.33 3.53-1.27 3.53-1.27l.14.14C7.92 6.35 6.9 7.35 6.9 7.35c.1-.02 4.63-2.63 10.12.07 0 0-1.02-.94-3.13-1.54l.19-.18c.29 0 1.83.06 3.48 1.26 0 0 1.84 3.15 1.84 7.02-.06-.07-1.14 1.67-3.93 1.73 0 0-.47-.54-.8-1a4.04 4.04 0 002.23-1.4c-3.17 1.99-5.95 1.68-9.28.33-.03 0-.04-.02-.06-.03-.01-.02-.03-.04-.06-.04h-.06c-.2-.13-.34-.2-.34-.2s.6.94 2.17 1.4l-.81 1c-2.79-.06-3.8-1.8-3.8-1.8 0-3.87 1.83-7.02 1.83-7.02z"/><path d="M14.3 12.77c.72 0 1.3-.6 1.3-1.34 0-.73-.58-1.33-1.3-1.33-.7 0-1.28.6-1.28 1.34 0 .73.58 1.33 1.29 1.33zM9.69 12.77c.71 0 1.29-.6 1.29-1.34 0-.73-.57-1.33-1.29-1.33-.71 0-1.29.6-1.29 1.34 0 .73.58 1.33 1.29 1.33z"/></g></svg>