<svg width="1024" height="1024" xmlns="http://www.w3.org/2000/svg" xmlns:xlink="http://www.w3.org/1999/xlink"><defs><linearGradient x1="50%" y1="0%" x2="50%" y2="100%" id="c"><stop stop-color="#FF0F7B" offset="0%"/><stop stop-color="#F89B29" offset="100%"/></linearGradient><linearGradient x1="50%" y1="0%" x2="50%" y2="100%" id="f"><stop stop-color="#FFF" offset="0%"/><stop stop-color="#FFF" offset="60%"/><stop stop-color="#9A9AB8" offset="88.9%"/><stop stop-color="#9898D1" offset="100%"/></linearGradient><linearGradient x1="50%" y1="0%" x2="50%" y2="99.5%" id="g"><stop stop-color="#FFF" offset="0%"/><stop stop-color="#D8D8D8" offset="100%"/></linearGradient><linearGradient x1="50%" y1="0%" x2="50%" y2="100%" id="h"><stop stop-color="#FFF" stop-opacity="0" offset="0%"/><stop stop-color="#FA7142" offset="100%"/></linearGradient><linearGradient x1="50%" y1="82.9%" x2="50%" y2="131.9%" id="i"><stop stop-color="#FFF" stop-opacity="0" offset="0%"/><stop stop-color="#FFF" stop-opacity=".5" offset="100%"/></linearGradient><linearGradient x1="50%" y1="0%" x2="50%" y2="100%" id="j"><stop stop-color="#FFF" stop-opacity=".5" offset="0%"/><stop stop-color="#E6E6E6" stop-opacity=".5" offset="100%"/></linearGradient><filter x="-1.8%" y="-1.4%" width="103.6%" height="103.6%" filterUnits="objectBoundingBox" id="a"><feMorphology radius=".5" operator="dilate" in="SourceAlpha" result="shadowSpreadOuter1"/><feOffset dy="4" in="shadowSpreadOuter1" result="shadowOffsetOuter1"/><feGaussianBlur stdDeviation="5" in="shadowOffsetOuter1" result="shadowBlurOuter1"/><feColorMatrix values="0 0 0 0 0 0 0 0 0 0 0 0 0 0 0 0 0 0 0.3 0" in="shadowBlurOuter1"/></filter><filter x="-19.6%" y="-14.9%" width="139.2%" height="139.3%" filterUnits="objectBoundingBox" id="d"><feMorphology radius="2.5" operator="dilate" in="SourceAlpha" result="shadowSpreadOuter1"/><feOffset dy="25" in="shadowSpreadOuter1" result="shadowOffsetOuter1"/><feGaussianBlur stdDeviation="28" in="shadowOffsetOuter1" result="shadowBlurOuter1"/><feColorMatrix values="0 0 0 0 0 0 0 0 0 0 0 0 0 0 0 0 0 0 0.162696678 0" in="shadowBlurOuter1"/></filter><filter x="-12.1%" y="-7.4%" width="124.2%" height="124.2%" filterUnits="objectBoundingBox" id="k"><feGaussianBlur stdDeviation="3" in="SourceAlpha" result="shadowBlurInner1"/><feOffset in="shadowBlurInner1" result="shadowOffsetInner1"/><feComposite in="shadowOffsetInner1" in2="SourceAlpha" operator="arithmetic" k2="-1" k3="1" result="shadowInnerInner1"/><feColorMatrix values="0 0 0 0 1 0 0 0 0 1 0 0 0 0 1 0 0 0 0.713942308 0" in="shadowInnerInner1"/></filter><path id="b" d="M0 0h1024v1024H0z"/><path d="M540 458l49-50c14-14 18-25 18-46v-71c0-28-15-43-40-43H459c-26 0-40 15-40 43v71c0 21 3 32 18 46l49 50c17 16 37 16 54 0zM361 607c21 0 32-4 46-18l50-49c16-17 16-37 0-54l-50-49c-14-15-25-18-46-18h-71c-27 0-43 14-43 40v108c0 25 16 40 43 40h71zm373 0c27 0 43-15 43-40V459c0-26-16-40-43-40h-71c-21 0-32 3-46 18l-50 49c-16 17-16 37 0 54l50 49c14 14 25 18 46 18h71zM566 777c25 0 40-16 40-43v-71c0-21-4-32-18-46l-49-50c-17-16-37-16-54 0l-49 50c-15 14-18 25-18 46v71c0 27 14 43 40 43h108z" id="e"/></defs><g fill="none" fill-rule="evenodd"><use fill="#000" filter="url(#a)" xlink:href="#b"/><use fill="url(#c)" xlink:href="#b"/><g fill-rule="nonzero"><use fill="#000" filter="url(#d)" xlink:href="#e"/><use fill="url(#f)" xlink:href="#e"/><use fill="url(#g)" xlink:href="#e"/><use fill="url(#h)" xlink:href="#e"/><use fill="url(#i)" xlink:href="#e"/><use fill="url(#j)" xlink:href="#e"/><use fill="#000" filter="url(#k)" xlink:href="#e"/></g></g></svg>